# xmcd
#
# Track frame offsets:
#	150
#	11462
#	23100
#	35200
#	48425
#	61325
#	72337
#	87675
#	98920
#	108892
#	124917
#	136807
#	149225
#	161750
#	171912
#	182615
#	194455
#	207515
#	221962
#	233092
#
# Disc length: 3268 seconds
#
# Revision: 0
# Processed by: cddbd v1.5PL3 Copyright (c) Steve Scherf et al.
# Submitted via: audiograbber 1.82.02
#
DISCID=350cc214
DTITLE=Various Artist - The Very Best Of The Drifters And The Platters
DYEAR=1900
DGENRE=
TTITLE0=The Drifters - Saturday Night At The Movies
TTITLE1=The Drifters - Up On The Roof
TTITLE2=The Drifters - Under The Boardwalk
TTITLE3=The Drifters - On Broadway
TTITLE4=The Drifters - Spanish Harlem
TTITLE5=The Drifters - Save The Last Dance For Me
TTITLE6=The Drifters - Like Sister And Brother
TTITLE7=The Drifters - When My Little Girl Is Smiling
TTITLE8=The Drifters - Dance With Me
TTITLE9=The Drifters - Kissin' In The Back Row Of The Movies
TTITLE10=The Platters - Great Pretender
TTITLE11=The Platters - My Prayer
TTITLE12=The Platters - Twilight Time
TTITLE13=The Platters - Come Prima
TTITLE14=The Platters - Red Sails In The Sunset
TTITLE15=The Platters - Only You
TTITLE16=The Platters - One In A Million
TTITLE17=The Platters - Harbour Lights
TTITLE18=The Platters - (You've Got) The Magic Touch
TTITLE19=The Platters - Smoke Gets In Your Eyes
EXTD=
EXTT0=
EXTT1=
EXTT2=
EXTT3=
EXTT4=
EXTT5=
EXTT6=
EXTT7=
EXTT8=
EXTT9=
EXTT10=
EXTT11=
EXTT12=
EXTT13=
EXTT14=
EXTT15=
EXTT16=
EXTT17=
EXTT18=
EXTT19=
PLAYORDER=
